<?xml version="1.0" ?>

<!DOCTYPE svg  PUBLIC '-//W3C//DTD SVG 1.1//EN'  'http://www.w3.org/Graphics/SVG/1.1/DTD/svg11.dtd'>

<!-- Uploaded to: SVG Repo, www.svgrepo.com, Generator: SVG Repo Mixer Tools -->
<svg fill="#b7ab98" width="100%" height="100%" viewBox="0 0 512 512" version="1.1" xml:space="preserve" xmlns="http://www.w3.org/2000/svg" xmlns:xlink="http://www.w3.org/1999/xlink">

<g id="B_-_124_x2C__Trophy_x2C__Achievement_x2C__award_x2C__business_x2C__prize_x2C__win_x2C__winner">

<g>

<path d="M326.883,184.644H185.051v20.718c0,1.427-1.171,2.565-2.536,2.565h-27.47    v49.292c0,4.514,0.716,8.865,2.078,12.891c1.43,4.222,3.509,8.118,6.17,11.593c2.598,3.313,5.65,6.268,9.093,8.638    c3.377,2.37,7.144,4.253,11.168,5.487c0.911,0.292,1.691,1.137,1.757,2.208c0.648,7.177,2.4,14.027,5.064,20.425    c2.726,6.593,6.495,12.729,10.974,18.151c4.545,5.488,9.936,10.326,15.912,14.256c5.844,3.864,12.339,6.884,19.288,8.864    c0.845,0.26,1.559,0.975,1.818,1.916c0.908,4.318,1.233,8.67,1.105,13.021c-0.066,4.319-0.651,8.605-1.625,12.924    c-0.974,4.481-2.404,8.995-4.157,13.476c-1.688,4.254-3.638,8.509-5.716,12.761h55.984c-2.145-4.091-4.029-8.215-5.716-12.37    c-1.69-4.417-3.184-8.865-4.157-13.412c-0.973-4.285-1.559-8.638-1.625-13.02c-0.127-4.417,0.26-8.898,1.234-13.379    c0.131-0.909,0.844-1.656,1.756-1.949c6.949-1.98,13.44-5,19.288-8.864c5.972-3.896,11.362-8.734,15.911-14.255    c4.479-5.423,8.183-11.526,10.908-18.119c2.664-6.364,4.417-13.216,5.064-20.327v-0.065c0.066-1.038,0.78-1.948,1.82-2.24    c4.027-1.266,7.728-3.117,11.17-5.487c3.441-2.402,6.496-5.325,9.028-8.67c2.661-3.442,4.739-7.339,6.17-11.561    c1.362-4.025,2.142-8.377,2.142-12.891v-49.292h-27.472c-1.427,0-2.599-1.138-2.599-2.565v-2.241h-81.372    c-1.365,0-2.533-1.169-2.533-2.565c0-1.428,1.168-2.597,2.533-2.597h81.372V184.644z M201.155,418.959v20.619h58.839    c1.428,0,2.598,1.137,2.598,2.565s-1.17,2.565-2.598,2.565h-58.839v10.748h109.624v-36.498    C274.279,418.959,237.719,418.959,201.155,418.959z M326.883,280.856v-59.358c0-1.396,1.172-2.565,2.599-2.565h15.069    c1.427,0,2.598,1.169,2.598,2.565v34.55c0,5.65-1.625,11.105-4.481,15.782c-2.794,4.644-6.817,8.54-11.755,11.17    c-0.391,0.26-0.91,0.422-1.431,0.422C328.055,283.422,326.883,282.253,326.883,280.856z M332.08,224.097v52.085    c2.469-1.948,4.611-4.319,6.235-6.982c2.338-3.896,3.638-8.41,3.638-13.151v-31.952H332.08z M185.051,221.499v59.358    c0,0.391-0.066,0.78-0.326,1.17c-0.651,1.266-2.21,1.753-3.443,1.07c-2.141-1.136-4.22-2.532-6.038-4.123l-0.132-0.13    c-1.88-1.655-3.505-3.54-4.936-5.617c-1.687-2.468-3.052-5.229-3.96-8.184c-0.911-2.856-1.364-5.909-1.364-8.995v-34.55    c0-1.396,1.17-2.565,2.532-2.565h15.132C183.879,218.934,185.051,220.103,185.051,221.499z M179.919,276.148v-52.052h-9.938    v31.952c0,2.598,0.392,5.13,1.105,7.468c0.778,2.437,1.884,4.741,3.312,6.82c1.167,1.72,2.532,3.279,4.157,4.675L179.919,276.148z     M228.235,197.958c1.43,0,2.536,1.169,2.536,2.597c0,1.396-1.105,2.565-2.536,2.565h-17.013c-1.431,0-2.598-1.169-2.598-2.565    c0-1.428,1.167-2.597,2.598-2.597H228.235z M282.787,439.578c1.432,0,2.599,1.137,2.599,2.565s-1.167,2.565-2.599,2.565h-9.806    c-1.428,0-2.532-1.137-2.532-2.565s1.104-2.565,2.532-2.565H282.787z M261.747,266.861l-5.782-17.923l-6.364,19.71l-20.716-0.032    l16.819,12.143l-6.43,19.711l16.69-12.209l16.755,12.209l-6.43-19.711l16.757-12.143l-20.716,0.032L261.747,266.861z     M258.436,239.813l7.662,23.704l24.938-0.032l1.494,4.644l-20.195,14.58l7.728,23.704l-3.962,2.857l-20.134-14.678l-20.13,14.678    l-3.963-2.857l7.795-23.704l-20.196-14.58l1.493-4.644l24.938,0.032l7.664-23.704H258.436z M253.433,43.035    c0-1.396,1.104-2.565,2.532-2.565c1.43,0,2.598,1.169,2.598,2.565V80.41c0,1.43-1.168,2.565-2.598,2.565    c-1.428,0-2.532-1.136-2.532-2.565V43.035z M404.363,121.941c1.232-0.682,2.792-0.227,3.506,1.039    c0.65,1.234,0.193,2.793-1.039,3.475l-34.486,18.67c-1.232,0.683-2.792,0.228-3.439-1.038c-0.715-1.234-0.261-2.793,1.039-3.475    L404.363,121.941z M105.167,126.455c-1.296-0.682-1.752-2.24-1.036-3.475c0.648-1.266,2.208-1.721,3.44-1.039l34.486,18.671    c1.234,0.682,1.688,2.24,1.04,3.475c-0.714,1.266-2.273,1.721-3.506,1.038L105.167,126.455z M329.354,81.06    c0.714-1.202,2.338-1.591,3.506-0.845c1.233,0.748,1.624,2.305,0.846,3.54l-12.146,19.743c-0.713,1.202-2.271,1.591-3.506,0.844    c-1.232-0.747-1.624-2.337-0.846-3.539L329.354,81.06z M407.09,202.763c1.43,0,2.598,1.136,2.598,2.565s-1.168,2.565-2.598,2.565    h-24.288c-1.431,0-2.599-1.136-2.599-2.565s1.168-2.565,2.599-2.565H407.09z M104.911,207.893c-1.43,0-2.598-1.136-2.598-2.565    s1.168-2.565,2.598-2.565h24.222c1.43,0,2.598,1.136,2.598,2.565s-1.168,2.565-2.598,2.565H104.911z M178.229,83.754    c-0.714-1.234-0.326-2.792,0.845-3.54c1.233-0.747,2.792-0.357,3.506,0.845l12.145,19.743c0.779,1.202,0.388,2.792-0.845,3.539    c-1.168,0.747-2.727,0.358-3.506-0.844L178.229,83.754z M253.433,113.823c0-1.429,1.104-2.598,2.532-2.598    c1.43,0,2.598,1.169,2.598,2.598v21.075c0,1.396-1.168,2.565-2.598,2.565c-1.428,0-2.532-1.169-2.532-2.565V113.823z     M333.964,157.368c1.233-0.714,2.793-0.292,3.506,0.942c0.714,1.201,0.26,2.793-0.973,3.474l-18.249,10.554    c-1.234,0.681-2.793,0.26-3.443-0.942c-0.714-1.233-0.323-2.792,0.91-3.507L333.964,157.368z M175.437,161.783    c-1.232-0.681-1.624-2.273-0.974-3.474c0.714-1.234,2.339-1.656,3.506-0.942l18.315,10.521c1.168,0.715,1.621,2.273,0.908,3.507    c-0.713,1.203-2.273,1.624-3.506,0.942L175.437,161.783z M293.764,134.735c0.716-1.234,2.271-1.656,3.508-0.942    c1.234,0.682,1.621,2.273,0.974,3.475l-6.43,11.137c-0.714,1.234-2.272,1.656-3.506,0.942c-1.236-0.683-1.624-2.273-0.977-3.475    L293.764,134.735z M213.755,137.3c-0.714-1.233-0.326-2.792,0.907-3.507c1.234-0.714,2.793-0.292,3.509,0.942l6.43,11.138    c0.713,1.202,0.322,2.792-0.912,3.475c-1.233,0.714-2.792,0.292-3.506-0.91L213.755,137.3z M166.541,471.53    c-1.43,0-2.536-1.17-2.536-2.598c0-1.396,1.105-2.565,2.536-2.565h22.988v-5.78h9.028h0.066c41.238,0,82.541,0,123.781,0v5.78    h29.615c1.428,0,2.594,1.169,2.594,2.565c0,1.428-1.166,2.598-2.594,2.598H166.541z M307.141,303.262    c0.133-1.396,1.432-2.435,2.793-2.305c1.43,0.162,2.47,1.43,2.338,2.825l-0.063,0.746c-0.91,8.898-2.598,24.321-41.434,46.435    c-1.234,0.683-2.793,0.26-3.444-0.974c-0.714-1.234-0.325-2.793,0.911-3.507c36.627-20.815,38.057-34.582,38.837-42.474    L307.141,303.262z" style="fill-rule:evenodd;clip-rule:evenodd;"/>

</g>

</g>

<g id="Layer_1"/>

</svg>